<svg id="Layer_1" data-name="Layer 1" xmlns="http://www.w3.org/2000/svg" viewBox="0 0 344.2 173.73"><defs><style>.cls-1{fill:#1c1c1f;}.cls-2{fill:#fff;}</style></defs><path class="cls-1" d="M257.41,174.13a262.66,262.66,0,0,0-82.52,7c-4.29,1.06-10.63,2.76-18.45,5.37,1.5-16.88-5.36-33.17-7.11-37.36-11.72-27.84-29.69-42.57-29.69-42.57a245.79,245.79,0,0,1,80.27,25.54A238.67,238.67,0,0,1,257.41,174.13Z" transform="translate(-28.13 -106.56)"/><path class="cls-1" d="M372.33,267.43c-81.91,16.52-130.26,5.16-159.73-9.32-10.65-5.24-29.19-15.89-56.79-18.65-35-3.51-63.18,7.82-75,12.76-47.33,19.68-62.94,38.89-46,20.91,17.54-18.64,43-42,73.9-59.68a239.73,239.73,0,0,1,150-30.51.27.27,0,0,1,.07.08,157.29,157.29,0,0,1,70,30.43A150,150,0,0,1,372.33,267.43Z" transform="translate(-28.13 -106.56)"/><path class="cls-2" d="M310.42,237.5c-1.16,6.45-26.29,9-47.11,5.56-23.57-3.88-48.63-16.54-47.12-23.35,1.57-7.06,31.76-8.26,56.31-2.23C289.41,221.64,311.56,231.16,310.42,237.5Z" transform="translate(-28.13 -106.56)"/></svg>