<svg xmlns="http://www.w3.org/2000/svg" viewBox="0 0 871.9 582.3"><path d="M580.8,176.9a642.6,642.6,0,0,0-209,18.2c-10.9,2.8-27,7.3-46.8,14.1,3.8-44.2-13.6-86.8-18-97.8C277.3,38.6,231.8,0,231.8,0a604.4,604.4,0,0,1,349,176.9Z"/><path d="M761.4,279.8C691,223.4,619,206.2,584.2,200.1l-.2-.2a595.1,595.1,0,0,0-222.6,13.9c-26.7,6.9-87.4,24.5-157.4,66C125.7,326.1,61.2,387.2,16.8,436c-42.9,47-3.4-3.2,116.5-54.8,30.1-12.9,101.4-42.5,190.1-33.4,69.9,7.3,116.9,35.1,143.9,48.9,74.6,37.9,197.1,67.6,404.6,24.4A390.8,390.8,0,0,0,761.4,279.8Zm-46.3,62.9c-3,16.9-66.6,23.5-119.4,14.6C536,347.1,472.6,314,476.4,296.1s80.4-21.6,142.6-5.8C661.8,301.2,717.9,326.1,715.1,342.7Z"/><path d="M112.9,501.3a34.7,34.7,0,0,1-22.6-7.8c-6.4-5.1-9.5-12.6-9.5-22.2,0-11.2,3.5-20.7,10.6-28.5s16.5-11.7,28-11.7c9.2,0,16.7,2.7,22.6,8.2s8.9,12.6,8.9,21.4q0,16.9-10.5,28.8C133.3,497.3,124.2,501.3,112.9,501.3Zm.1-15.6a9.7,9.7,0,0,0,8.7-4.4c1.9-2.9,3.5-7.2,4.6-12.8a68.6,68.6,0,0,0,1.8-11.4c0-3.5-.9-6.1-2.6-7.8a9.3,9.3,0,0,0-6.9-2.7c-5.5,0-9.4,3.5-11.6,10.5a61.3,61.3,0,0,0-3.3,18.4Q103.7,485.7,113,485.7Z"/><path d="M208.2,471.6l8,28H194.5L188,474.2h-8.6l-4.7,25.4H153.8L166,432.8h32c8.7,0,15.2,1.7,19.4,5.2s6.2,8.2,6.2,14.2C223.6,461.7,218.5,468.2,208.2,471.6Zm-26.3-11.3h8.3c7.9,0,11.9-2.5,11.9-7.4s-3.4-6.1-10-6.1h-7.7Z"/><path d="M277.2,458.1l14,41.5H269.6L261.3,472l-11.1,11.3-3,16.3H226.8l12.3-66.8h20.4l-5.7,30.7a29.9,29.9,0,0,1,5.3-7.6c2.4-2.5,6.2-6.6,11.4-12.4L281,432.8h20.9Z"/><path d="M336.5,485.9H316.8L310,499.6H291.8l34-66.8h23l11.3,66.8H338.5Zm-1.3-13.8-3-19.3-9.6,19.3Z"/><path d="M399.6,432.8l-12.2,66.8H366.5l12.3-66.8Z"/><path d="M441.4,448l-9.5,51.6H410.6l9.5-51.6H404.4l2.9-15.4h53.1L457.6,448Z"/><path d="M294.2,529.4l-18.9,4.3a7.6,7.6,0,0,0-4-4.7,15.5,15.5,0,0,0-7.1-1.7c-4.8,0-7.3,1.5-7.3,4.4a3.2,3.2,0,0,0,1.1,2.4c.6.7,2.6,1.6,5.7,2.6l11.7,3.8a30.4,30.4,0,0,1,8.4,4.3,17.6,17.6,0,0,1,5.7,6.3,16.2,16.2,0,0,1,1.7,7.2q0,10.2-8.7,16.8c-5.8,4.4-13.6,6.6-23.3,6.6a49.2,49.2,0,0,1-21.7-4.6A25.5,25.5,0,0,1,224.6,563l21.1-3.8c1.9,4.8,6.4,7.1,13.6,7.1,3,0,5.1-.5,6.5-1.5a4.2,4.2,0,0,0,2-3.4,3.2,3.2,0,0,0-.8-2.1,4.1,4.1,0,0,0-1.7-1.3c-.5-.3-3.3-1.3-8.3-3a128.5,128.5,0,0,1-14.1-5.3,18.3,18.3,0,0,1-6.8-5.9,15.8,15.8,0,0,1-2.7-9.2,19.4,19.4,0,0,1,7.4-15.5q7.3-6.3,22.5-6.3c7.8,0,14.4,1.4,19.9,4.4S292.4,524.2,294.2,529.4Z"/><path d="M329.9,582.3c-8.6,0-16.2-2.5-22.5-7.7s-9.6-12.6-9.6-22.3a41.2,41.2,0,0,1,10.7-28.5q10.7-11.7,27.9-11.7c9.2,0,16.8,2.8,22.7,8.2s8.8,12.6,8.8,21.5c0,11.3-3.5,20.8-10.5,28.7S341.2,582.3,329.9,582.3Zm.2-15.5a9.7,9.7,0,0,0,8.6-4.4c2-2.9,3.6-7.2,4.7-12.8s1.7-9.5,1.7-11.5-.9-6-2.6-7.8a9.4,9.4,0,0,0-6.9-2.6c-5.5,0-9.3,3.5-11.5,10.4a59.8,59.8,0,0,0-3.4,18.5C320.7,563.4,323.9,566.8,330.1,566.8Z"/><path d="M423.8,564.6l-2.9,16H370.8l12.3-66.8h22.2L396,564.6Z"/><path d="M498.6,513.8l-7.5,41.1c-1.3,7-3,12.2-5.1,15.5s-5.6,6.1-10.5,8.2a44.8,44.8,0,0,1-17.2,3.1c-8.7,0-15.5-1.7-20.3-5.1s-7.2-8.2-7.2-14.4a40.6,40.6,0,0,1,.7-7.3l7.6-41.1h22.3l-7.5,41.1a33.6,33.6,0,0,0-.6,5,5.6,5.6,0,0,0,2.7,4.9,11.3,11.3,0,0,0,6.5,1.7q4.8,0,7.2-2.1c1.7-1.5,2.9-4.4,3.7-8.8l7.6-41.8Z"/><path d="M539.5,529,530,580.6H508.7l9.5-51.6H502.5l2.8-15.4h53.1L555.6,529Z"/><path d="M586.4,513.8l-12.3,66.8H553.3l12.2-66.8Z"/><path d="M621.5,582.3a34.6,34.6,0,0,1-22.6-7.7c-6.3-5.2-9.5-12.6-9.5-22.3s3.5-20.6,10.7-28.5,16.4-11.7,27.9-11.7c9.2,0,16.7,2.8,22.6,8.2s8.9,12.6,8.9,21.5c0,11.3-3.5,20.8-10.5,28.7S632.8,582.3,621.5,582.3Zm.1-15.5a10,10,0,0,0,8.7-4.4c2-2.9,3.5-7.2,4.7-12.8s1.7-9.5,1.7-11.5-.9-6-2.6-7.8a9.7,9.7,0,0,0-6.9-2.6c-5.5,0-9.3,3.5-11.6,10.4a62.4,62.4,0,0,0-3.3,18.5Q612.3,566.8,621.6,566.8Z"/><path d="M736.8,513.8l-12.2,66.8H708.3L694.2,555c-3.8-7-6.2-12.6-7.2-16.7a22.7,22.7,0,0,1,.1,2.4,47.3,47.3,0,0,1-.8,7.2l-6,32.7H662.4l12.2-66.8h19.8l8,15.5c5.6,10.7,9.3,18.6,10.9,23.7-.1-1.3-.1-2.3-.1-3a84,84,0,0,1,1.4-10.8l4.7-25.4Z"/><path d="M804.1,529.4l-18.9,4.3a7.6,7.6,0,0,0-4-4.7,15.5,15.5,0,0,0-7.1-1.7c-4.8,0-7.3,1.5-7.3,4.4a3.2,3.2,0,0,0,1.1,2.4c.6.7,2.6,1.6,5.7,2.6l11.7,3.8a30.4,30.4,0,0,1,8.4,4.3,17.6,17.6,0,0,1,5.7,6.3,16.2,16.2,0,0,1,1.7,7.2q0,10.2-8.7,16.8c-5.8,4.4-13.6,6.6-23.3,6.6a49.2,49.2,0,0,1-21.7-4.6A25.5,25.5,0,0,1,734.5,563l21.1-3.8c1.8,4.8,6.4,7.1,13.6,7.1,3,0,5.1-.5,6.5-1.5a4.2,4.2,0,0,0,2-3.4,3.2,3.2,0,0,0-.8-2.1,4.1,4.1,0,0,0-1.7-1.3c-.5-.3-3.3-1.3-8.3-3a128.5,128.5,0,0,1-14.1-5.3,17.6,17.6,0,0,1-6.8-5.9,15.8,15.8,0,0,1-2.7-9.2,19.4,19.4,0,0,1,7.4-15.5q7.3-6.3,22.5-6.3c7.8,0,14.4,1.4,19.9,4.4S802.3,524.2,804.1,529.4Z"/></svg>