<svg xmlns="http://www.w3.org/2000/svg" viewBox="0 0 192.7 192.7">
    <path fill="hsl(0, 0%, 55%)" d="M192.7,5V187.7a5.1,5.1,0,0,1-5,5H110.8c-.1-20.6,0-41.2-.1-61.7,0-2.9.8-3.4,3.5-3.4,5.8.2,11.6.1,17.4.1,1.2,0,2.3.1,2.6-1.6,1.7-8.9,3.5-17.8,5.3-26.8a6.2,6.2,0,0,0-3-.3H113.1c-1.8.1-2.4-.5-2.4-2.4.1-6.7,0-13.4.1-20.1s4.8-12,12.2-12h14.5c1.7.1,2.1-.5,2.1-2.1-.1-6.2-.1-12.4,0-18.5.1-2-.6-2.6-2.5-2.8-5.2-.4-10.5-1-15.7-1.6C99.7,37.1,82.1,52.8,82,74.6c0,7-.1,14.1.1,21.2.1,2.8-.8,3.3-3.4,3.3-7.8-.2-15.6-.1-23.4-.1-1.6,0-2.2.3-2.2,2.1.1,8.1.1,16.2,0,24.4,0,1.8.7,2.3,2.4,2.2,7.8,0,15.7.1,23.6-.1,2.3,0,3,.6,3,3-.1,20.7,0,41.4-.1,62.1H5a5,5,0,0,1-5-5V5A5,5,0,0,1,5,0H187.7A5,5,0,0,1,192.7,5Z" />
</svg>