<svg xmlns="http://www.w3.org/2000/svg" viewBox="0 0 200.4 198.7">
    <path fill="hsl(0, 0%, 55%)" d="M200.4,100.2a100.2,100.2,0,0,1-72.5,96.4V185.3a4.1,4.1,0,0,1-.1-1.1c0-7.8,0-15.6.1-23.3s-1.2-12.7-6-17.9c4-.8,7.8-1.3,11.5-2.3,11.2-2.8,20.5-8.2,25.7-19a51,51,0,0,0,3.5-35.4,31.8,31.8,0,0,0-6.8-12.5,2.9,2.9,0,0,1-.7-3.2c2.2-7.2,1.6-14.4-1.1-21.5a2.9,2.9,0,0,0-2.2-1.4,27,27,0,0,0-12.5,3.2c-3.5,1.7-6.7,3.8-10.1,5.6a4.3,4.3,0,0,1-2.7.4,90.6,90.6,0,0,0-43.9,0,3.9,3.9,0,0,1-2.9-.7c-6.1-3.7-12.3-7.1-19.4-8.3l-.7-.2c-3.7-.5-4.1-.3-5.2,3.3a33.9,33.9,0,0,0-.2,20.2,2.8,2.8,0,0,1-.4,2c-8.4,9.6-10,21-8.2,33.1a56.9,56.9,0,0,0,3.2,12.6c4.7,12.2,14.4,18.6,26.6,21.8,3.8,1,7.7,1.6,11.8,2.4a21.3,21.3,0,0,0-5.5,11.5,2.4,2.4,0,0,1-1.4,1.2c-9.9,3.8-19.6,2.2-25.7-8-2.9-4.8-6.9-8.3-12.6-9.4a10.4,10.4,0,0,0-4.3,0c-2,.4-2.3,1.5-1,3a12.4,12.4,0,0,0,2.2,1.8c5.1,3,8.3,7.6,10.4,12.9,3.5,8.4,10.1,12.3,18.8,13,4.3.3,8.6-.3,13.2-.5,0,1.5.1,24.4.1,30.1a100.2,100.2,0,1,1,119-98.5Z" />
</svg>