<svg xmlns="http://www.w3.org/2000/svg" viewBox="0 0 192.7 192.7">
    <defs>
        <style>.a{fill:#fdfefd;}</style>
    </defs>
    <path d="M192.7,5V187.7a5.1,5.1,0,0,1-5,5H5a5,5,0,0,1-5-5V5A5,5,0,0,1,5,0H187.7A5,5,0,0,1,192.7,5Z" />
    <path class="a" d="M54,98.5V52.7c0-1.4-.4-1.8-1.7-1.7a14.7,14.7,0,0,1-2.1,0,2.4,2.4,0,0,1-2.6-1.6,2.5,2.5,0,0,1,.7-2.9l3.9-3.7L63.9,31.9c2-1.9,3-1.9,5,0L84.4,46.3a2.5,2.5,0,0,1,.8,3,2.7,2.7,0,0,1-2.7,1.8c-1.2-.1-2.7-.5-3.4.2s-.2,2.3-.2,3.4c-.1,9.3,0,18.5-.1,27.7,0,1.1.2,1.5,1.5,1.5,10.7-.1,21.4,0,32.1,0,1.2,0,1.5-.3,1.4-1.4V48.4c0-2.8.9-3.6,3.6-3.6h17.8c2.6,0,3.5.8,3.5,3.4q0,45.9-.1,91.8c0,1.3.3,1.9,1.7,1.7h2.2a2.7,2.7,0,0,1,1.8,4.7l-3.9,3.7-11.6,10.7c-2,1.9-3,2-5,.1l-15.5-14.4a2.7,2.7,0,0,1-.8-3.1,2.5,2.5,0,0,1,2.6-1.7h2.3c1.1.1,1.5-.3,1.5-1.5-.1-7.1-.1-14.2-.1-21.3V110c.1-.8-.1-1.2-1.1-1.2H80c-1.2,0-1.2.6-1.2,1.4v33.9c0,3-.7,3.8-3.7,3.8H57.3c-2.4,0-3.3-.9-3.3-3.4v-46Z" />
</svg>