<svg xmlns="http://www.w3.org/2000/svg" viewBox="0 0 183.1 183.3">
    <path fill="hsl(0, 0%, 55%)" d="M0,87.7c.2-9.6.4-23.4,1-37.1.5-10,3-19.6,8.7-28.1,7.5-11.2,18-17.8,31.1-20.3A101.7,101.7,0,0,1,58.2.4C74.9.1,91.7-.1,108.4,0c9.3.1,18.6.3,27.9,1.1,13.6,1.3,25.5,6.5,34.5,17.2a46.6,46.6,0,0,1,10.7,23.8A118.2,118.2,0,0,1,183,60.9c.2,20.4.1,40.9.1,61.3-.1,7.2-.4,14.4-2.1,21.5-4.6,18.9-16.1,31.3-34.9,36.5a67,67,0,0,1-14.7,2.2q-40.1,1.8-80.1,0c-11-.5-21.5-3.3-30.5-10.1A46.3,46.3,0,0,1,2.4,142.7,111.5,111.5,0,0,1,.6,125.4C.2,114.2.2,103,0,87.7ZM91.7,167v-.3c6.7,0,13.4.1,20.1-.1,8.6-.3,17.2-.3,25.7-1.5,13-1.7,22.1-8.9,26.4-21.5,2-5.8,2.5-11.9,2.5-18.1q.1-33.7,0-67.7a68,68,0,0,0-1.4-13.5c-2.7-14-11.1-22.7-25.1-25.8-6.8-1.5-13.6-1.6-20.5-1.7H69.8c-8.2.1-16.5,0-24.7,1.5C31.6,20.8,22.6,28.5,19.1,42c-1.7,6.4-2,12.9-2,19.4-.2,17.9-.2,35.8-.2,53.8.1,7.9.1,15.8,1.6,23.6s5.3,15.3,12.2,20.3,13.8,6.6,21.6,6.9C65.4,166.5,78.6,166.6,91.7,167Z" />
    <path fill="hsl(0, 0%, 55%)" d="M91.9,138.7a47.1,47.1,0,1,1,47-47.1A47.3,47.3,0,0,1,91.9,138.7Zm-.1-16.6A30.5,30.5,0,1,0,61.3,91.5,30.5,30.5,0,0,0,91.8,122.1Z" />
    <path fill="hsl(0, 0%, 55%)" d="M151.7,42.8a11,11,0,1,1-21.9-.3,11,11,0,1,1,21.9.3Z" />
</svg>