<svg xmlns="http://www.w3.org/2000/svg" viewBox="0 0 200 200">
    <path fill="hsl(0, 0%, 55%)" d="M100,0A100,100,0,0,0,81.3,198.3,104,104,0,0,0,100,200a96.9,96.9,0,0,0,27.6-3.9A100,100,0,0,0,100,0Zm57.5,75.1a30.9,30.9,0,0,1-4.3,3.7,3.9,3.9,0,0,0-1.7,3.7c.5,29.8-18.6,57.9-46.3,67.4-20.7,7-40.8,5.1-59.9-5.8a7.2,7.2,0,0,1-1.5-1.1c13.2,1,25-2.2,35.8-10.4-11.3-1.1-18.9-6.6-23-17.2,3.7.4,7,.7,10.4-.5-13.1-5.6-19.7-14-18.9-24.4a26.8,26.8,0,0,0,10.4,2.8c0-.7-.7-.9-1.1-1.2a24.9,24.9,0,0,1-6.9-30c.7-1.5,1.1-1.7,2.3-.3,12.6,14.5,28.6,22.5,47.8,24.3,2,.2,1.8-.7,1.6-2-2-15.7,9.9-28.9,25.7-28.3a23.6,23.6,0,0,1,15.7,6.7,2.7,2.7,0,0,0,2.9.8,55.6,55.6,0,0,0,13.8-5.6c-1.8,5.9-5.4,10-10.4,13.5,4.9-.4,8.9-2,13.1-3.3h.1C161.8,70.8,159.6,72.9,157.5,75.1Z" />
</svg>