<svg xmlns="http://www.w3.org/2000/svg" viewBox="0 0 116.9 117.8">
    <path fill="hsl(0, 0%, 55%)" d="M0,117.8l2.2-6.5c2.7-7.9,5.3-15.9,8-23.9a.8.8,0,0,0-.1-.8A57.4,57.4,0,0,1,33.9,6,55.5,55.5,0,0,1,56.1.1a56.9,56.9,0,0,1,53,28.5,56,56,0,0,1,7.4,35.1,55.7,55.7,0,0,1-14.1,31.7,57.2,57.2,0,0,1-67.8,13.7l-2.3-1.2a1.4,1.4,0,0,0-1.1-.1L1,117.5ZM107.2,57.4a42.1,42.1,0,0,0-.6-7.9A46.7,46.7,0,0,0,85.8,17.6,46.3,46.3,0,0,0,53.9,10a46.2,46.2,0,0,0-21.4,8A47.2,47.2,0,0,0,17.6,34.5a48.2,48.2,0,0,0-5.8,20A51,51,0,0,0,12.9,68a49.1,49.1,0,0,0,7.6,17,1,1,0,0,1,.2.9l-5.1,15.2a7.8,7.8,0,0,0-.5,1.4c-.1.2-.2.3,0,.5s.2,0,.4-.1.2,0,.2-.1l16.8-5.3a1.2,1.2,0,0,1,1.3.1l2.1,1.3a47.1,47.1,0,0,0,31.4,5.6A46.3,46.3,0,0,0,96.8,87.1,46.6,46.6,0,0,0,107.2,57.4Z" />
    <path fill="hsl(0, 0%, 55%)" d="M40.7,29.3l3.1.2a2.2,2.2,0,0,1,1.6.7,8.1,8.1,0,0,1,1,1.8l4.2,11.4a2.9,2.9,0,0,1-.1,2.4,17.9,17.9,0,0,1-3.6,4.6l-.5.5a1.9,1.9,0,0,0-.4,2.7,41.2,41.2,0,0,0,5.3,7.8,37,37,0,0,0,13,9.8l1.6.8a1.9,1.9,0,0,0,2.4-.5c1.7-1.8,3.4-3.6,4.9-5.5s1.6-1.5,3-.9,5.2,2.6,7.8,4l3.9,2.1a2.3,2.3,0,0,1,1.4,2.5,16.5,16.5,0,0,1-1.4,5.8A8.5,8.5,0,0,1,85.8,82a16.9,16.9,0,0,1-7.3,3.7,15.4,15.4,0,0,1-8.5-.5,79.4,79.4,0,0,1-12.7-5.4,45,45,0,0,1-11.4-8.9,72.7,72.7,0,0,1-9.4-12.1,40.3,40.3,0,0,1-4.6-9,18.6,18.6,0,0,1-.5-10.7,17.5,17.5,0,0,1,5.5-8.6A5.3,5.3,0,0,1,40.7,29.3Z" />
</svg>