<svg id="Layer_1" data-name="Layer 1" xmlns="http://www.w3.org/2000/svg" viewBox="0 0 473.88 239.19"><defs><style>.cls-1{fill:#1c1c1f;}</style></defs><path class="cls-1" d="M329.86,222a361.76,361.76,0,0,0-113.61,9.62c-5.91,1.47-14.64,3.81-25.41,7.4,2.07-23.24-7.37-45.67-9.79-51.44-16.13-38.32-40.88-58.6-40.88-58.6A338,338,0,0,1,250.69,164.1,328.51,328.51,0,0,1,329.86,222Z" transform="translate(-14.19 -128.94)"/><path class="cls-1" d="M428,276.09a216.42,216.42,0,0,0-96.34-41.88.58.58,0,0,0-.1-.12,330.15,330.15,0,0,0-206.54,42C82.51,300.48,47.46,332.6,23.3,358.26,0,383,21.48,356.57,86.65,329.47,103,322.68,141.73,307.07,190,311.9c38,3.81,63.52,18.47,78.18,25.68,40.58,19.94,107.14,35.58,219.91,12.83A206.61,206.61,0,0,0,428,276.09Zm-25.19,33.12c-1.59,8.88-36.2,12.37-64.87,7.66-32.44-5.34-66.94-22.78-64.86-32.16,2.16-9.72,43.72-11.36,77.52-3.06C373.91,287.37,404.41,300.47,402.84,309.21Z" transform="translate(-14.19 -128.94)"/></svg>