<svg id="Layer_1" data-name="Layer 1" xmlns="http://www.w3.org/2000/svg" viewBox="0 0 416.1 98.22"><defs><style>.cls-1{fill:#f8ea45;}.cls-2{fill:#fff;}</style></defs><path class="cls-1" d="M149.74,221.66a148.7,148.7,0,0,0-46.66,4c-2.42.61-6,1.57-10.43,3,.85-9.54-3-18.75-4-21.12C82,191.79,71.85,183.47,71.85,183.47a138.84,138.84,0,0,1,45.38,14.43A135,135,0,0,1,149.74,221.66Z" transform="translate(-20.11 -183.47)"/><path class="cls-1" d="M190.05,243.89a88.92,88.92,0,0,0-39.56-17.2l0-.05a135.55,135.55,0,0,0-84.81,17.25c-17.47,10-31.86,23.2-41.79,33.74-9.56,10.17-.74-.69,26-11.82,6.71-2.79,22.62-9.2,42.43-7.21,15.6,1.56,26.08,7.58,32.1,10.54,16.66,8.19,44,14.61,90.3,5.27A84.74,84.74,0,0,0,190.05,243.89Zm-10.35,13.6c-.65,3.65-14.86,5.08-26.63,3.14-13.32-2.19-27.49-9.35-26.64-13.2s18-4.67,31.84-1.26C167.82,248.52,180.35,253.9,179.7,257.49Z" transform="translate(-20.11 -183.47)"/><path class="cls-2" d="M249.06,263.34a20.3,20.3,0,0,1-7.75-7.61,22.38,22.38,0,0,1,0-21.93,20.36,20.36,0,0,1,7.75-7.58,22.53,22.53,0,0,1,21.5,0,20,20,0,0,1,7.7,7.58,22.69,22.69,0,0,1,0,21.93,20.17,20.17,0,0,1-7.7,7.61,22.47,22.47,0,0,1-21.47,0Zm18.72-9.83a14.37,14.37,0,0,0,0-17.55,11.4,11.4,0,0,0-16,0c-2,2.17-3,5.11-3,8.82a12.53,12.53,0,0,0,3,8.79,10.32,10.32,0,0,0,8,3.29A10.19,10.19,0,0,0,267.78,253.51Z" transform="translate(-20.11 -183.47)"/><path class="cls-2" d="M301.26,233.83a11.42,11.42,0,0,1,5.92-1.57V243H304.4c-2.53,0-4.42.55-5.68,1.63s-1.9,3-1.9,5.72v15.33H286.69v-33h10.13v5.51A13.36,13.36,0,0,1,301.26,233.83Z" transform="translate(-20.11 -183.47)"/><path class="cls-2" d="M332.23,265.65,322.16,251.8v13.85H312V221.83h10.12v24.22l10-13.44h12.5l-13.74,16.58,13.85,16.46Z" transform="translate(-20.11 -183.47)"/><path class="cls-2" d="M348.54,240.13a14.38,14.38,0,0,1,5.25-5.92,13.67,13.67,0,0,1,7.4-2.07,12.7,12.7,0,0,1,6.13,1.42,10.53,10.53,0,0,1,4.05,3.73v-4.68H381.5v33H371.37V261a11.09,11.09,0,0,1-4.11,3.73,12.81,12.81,0,0,1-6.13,1.42,13.35,13.35,0,0,1-7.34-2.11,14.49,14.49,0,0,1-5.25-6,21.84,21.84,0,0,1,0-17.91Zm20.73,3a7.11,7.11,0,0,0-10.24,0,8.15,8.15,0,0,0-2.11,5.95,8.34,8.34,0,0,0,2.11,6,7,7,0,0,0,10.24,0,9.56,9.56,0,0,0,0-12Z" transform="translate(-20.11 -183.47)"/><path class="cls-2" d="M399,224.08v41.57H388.84V224.08Z" transform="translate(-20.11 -183.47)"/><path class="cls-2" d="M436.21,224.08v8.12h-11v33.45H415.07V232.2h-11v-8.12Z" transform="translate(-20.11 -183.47)"/></svg>