<?xml version="1.0" encoding="UTF-8"?>
<svg id="Layer_1" xmlns="http://www.w3.org/2000/svg" xmlns:xlink="http://www.w3.org/1999/xlink" viewBox="0 0 1920 668.71">
  <defs>
    <style>
      .cls-1{clip-path:url(#clippath);}
      .cls-2{fill:none;}
      .cls-2,.cls-3,.cls-4{stroke-width:0px;}
      .cls-4{fill-rule:evenodd;}
      .logo-text{fill:#000000;font-family:Arial,sans-serif;font-size:48px;font-weight:bold;}
    </style>
    <clipPath id="clippath">
      <rect class="cls-2" width="599.13" height="668.71"/>
    </clipPath>
  </defs>
  <!-- Hexagon logo icon -->
  <g class="cls-1">
    <path class="cls-3" d="m299.57,668.67c-15.27,0-30.54-3.96-44.16-11.87l-211.24-122.75C16.93,518.24,0,488.74,0,457.08v-245.47C0,179.97,16.92,150.48,44.18,134.66L255.4,11.9c27.25-15.82,61.09-15.83,88.33,0l212.6,123.55c26.53,16.2,42.8,45.31,42.8,76.17v245.47c0,31.65-16.92,61.15-44.15,76.97l-211.25,122.75c-13.62,7.91-28.89,11.87-44.16,11.87Zm0-635.37c-9.49,0-18.97,2.46-27.44,7.38L60.9,163.44c-17.04,9.89-27.62,28.34-27.62,48.17v245.47c0,19.84,10.58,38.31,27.6,48.19l211.24,122.76c16.93,9.83,37.95,9.83,54.88,0l211.25-122.75c17.02-9.89,27.59-28.35,27.59-48.19v-245.47c0-19.34-10.17-37.57-26.54-47.57l-72.92-42.38-139.37-80.98c-8.46-4.92-17.96-7.38-27.44-7.38Z"/>
    <path class="cls-4" d="m479.27,451.83c0,24.24-19.6,43.89-43.77,43.89-9.48,0-18.24-3.01-25.41-8.16-.25-.16-.48-.32-.71-.5l-62.44,36.14-.71.39-7.77,4.38c-23.57,13.26-49.77,11.9-70.59.6-22.35-12.09-38.48-35.61-38.48-64.67v-159.86h-.04l-56.99,32.98s0,.02-.02.02c.18,1.52.25,3.01.25,4.56,0,6.03-1.22,11.79-3.43,17.02-6.62,15.78-22.19,26.86-40.34,26.86-1.86,0-3.68-.12-5.47-.35-7.5-.92-14.42-3.76-20.24-8.02-4.97-3.6-9.15-8.23-12.21-13.58-2.76-4.75-4.64-10.07-5.43-15.75-.3-2.02-.44-4.1-.44-6.19,0-1.6.09-3.17.27-4.73,2.35-22.02,20.95-39.15,43.52-39.15,10.19,0,19.57,3.49,27,9.36l73.53-42.54v-28.37c0-18.85,10.07-36.21,26.34-45.57l80.04-45.91c8.37-4.79,19-1.9,23.78,6.49,4.78,8.41,1.88,19.08-6.48,23.87l-80.04,45.91c-5.43,3.12-8.81,8.92-8.81,15.21v227.74c0,29.44,31.58,47.98,57.15,33.57l11.15-6.28,59.5-34.44c-.14-1.17-.23-2.38-.25-3.58-.04-.44-.04-.89-.04-1.35,0-24.24,19.6-43.89,43.79-43.89.58,0,1.19.02,1.77.04.44.02.88.04,1.33.07.39.04.76.05,1.15.11,1.4.12,2.76.32,4.12.6.44.09.9.18,1.35.28.44.09.88.19,1.33.32.42.11.83.21,1.24.34.55.16,1.1.32,1.63.5.09.04.18.07.28.11.73.25,1.45.51,2.16.82.8.32,1.59.67,2.37,1.03,1.88.9,3.7,1.93,5.41,3.09.5.32.99.66,1.45,1.01.12.09.27.18.39.27.02.02.02.04.04.04,9.5,7.04,16.07,17.86,17.46,30.25.18,1.47.28,2.96.28,4.49.02.18.02.37.02.55Z"/>
    <path class="cls-4" d="m479.31,187.1c0,5.67-1.08,11.1-3.04,16.07-.34.82-.67,1.63-1.04,2.45-.19.39-.39.8-.58,1.19-.39.82-.81,1.61-1.29,2.39-.18.32-.37.64-.57.96-.69,1.13-1.43,2.22-2.21,3.26-.41.55-.83,1.08-1.26,1.6-.35.43-.71.85-1.08,1.26-.04.05-.07.09-.12.12-.19.23-.41.46-.62.67-.19.23-.41.44-.64.66-.16.19-.35.39-.55.57-.67.69-1.38,1.35-2.11,1.95-.41.37-.81.71-1.24,1.05-1.4,1.13-2.85,2.18-4.37,3.12-.3.19-.6.37-.9.53-1.03.62-2.09,1.19-3.17,1.72-5.75,2.77-12.19,4.33-18.98,4.33-10.7,0-20.51-3.85-28.1-10.23l-75.88,43.92v174.61c0,9.66-7.8,17.48-17.43,17.48s-17.43-7.82-17.43-17.48v-178.71c0-9.43,4.72-18.16,12.46-23.32.11-.05.19-.12.28-.18.02,0,.04,0,.05-.04l1.26-.73,81.03-46.88c0-.18,0-.35-.04-.51-.04-.6-.09-1.19-.09-1.81,0-6.79,1.54-13.23,4.28-18.96,7.06-14.77,22.08-24.99,39.51-24.99,1.15,0,2.26.05,3.4.14h.02c.87.07,1.73.16,2.58.3h.05c.87.14,1.73.28,2.58.44.02,0,.04.02.07.02.27.05.55.12.81.18.41.09.8.18,1.19.28.73.18,1.43.37,2.14.58.27.07.51.16.78.25.27.07.51.16.78.27.51.18,1.04.37,1.54.57,2.83,1.08,5.5,2.46,8,4.11,5.22,3.39,9.66,7.87,13,13.12,3.1,4.81,5.25,10.27,6.26,16.12.44,2.45.65,4.97.65,7.54Z"/>
  </g>
  <!-- Orkait text -->
  <text x="600" y="400" class="logo-text">Orkait</text>
</svg>
