<svg id="Layer_1" data-name="Layer 1" xmlns="http://www.w3.org/2000/svg" viewBox="0 0 691.01 177.7">
	<defs>
		<style>
			.cls-1{fill:#cececf;}
		</style>
	</defs>
	<path class="cls-1" d="M171.57,517.62a75.56,75.56,0,0,1-28.77-28.23q-10.67-18.12-10.66-40.74T142.8,408a75.75,75.75,0,0,1,28.77-28.11,83.65,83.65,0,0,1,79.73,0A74.23,74.23,0,0,1,279.86,408q10.42,18,10.43,40.64t-10.54,40.74a75,75,0,0,1-28.56,28.23,83.51,83.51,0,0,1-79.62,0ZM241,481.15q11.09-12.3,11.09-32.5,0-20.43-11.09-32.62t-29.54-12.19q-18.67,0-29.76,12.08t-11.1,32.73q0,20.42,11.1,32.61t29.76,12.19Q229.89,493.45,241,481.15Z" transform="translate(-132.14 -350.24)" />
	<path class="cls-1" d="M365.19,408.12a42.49,42.49,0,0,1,22-5.82v39.76H376.83q-14.06,0-21.08,6t-7,21.19v56.89H311.16V403.62h37.56V424A49.54,49.54,0,0,1,365.19,408.12Z" transform="translate(-132.14 -350.24)" />
	<path class="cls-1" d="M480.07,526.18l-37.34-51.4v51.4H405.17V363.64h37.56v89.84l37.12-49.86h46.34l-51,61.5,51.4,61.06Z" transform="translate(-132.14 -350.24)" />
	<path class="cls-1" d="M540.58,431.51a53.26,53.26,0,0,1,19.44-22,50.7,50.7,0,0,1,27.45-7.69q13,0,22.74,5.27a38.88,38.88,0,0,1,15,13.84V403.62h37.56V526.18H625.25V508.83A40.64,40.64,0,0,1,610,522.67q-9.78,5.26-22.74,5.27a49.8,49.8,0,0,1-27.23-7.8A53.77,53.77,0,0,1,540.58,498q-7.14-14.38-7.14-33.28T540.58,431.51Zm76.88,11.2a26.41,26.41,0,0,0-38-.11q-7.8,8-7.8,22.08t7.8,22.29a26.15,26.15,0,0,0,38,.11q7.78-8.11,7.79-22.18T617.46,442.71Z" transform="translate(-132.14 -350.24)" />
	<path class="cls-1" d="M692.79,385.06a18.88,18.88,0,0,1-6.26-14.39,19.12,19.12,0,0,1,6.26-14.61q6.27-5.81,16.15-5.82,9.66,0,15.92,5.82a19.12,19.12,0,0,1,6.26,14.61,18.88,18.88,0,0,1-6.26,14.39q-6.25,5.82-15.92,5.82Q699.06,390.88,692.79,385.06Zm34.82,18.56V526.18H690.05V403.62Z" transform="translate(-132.14 -350.24)" />
	<path class="cls-1" d="M823.15,494.33v31.85H804q-20.41,0-31.84-10t-11.43-32.62V434.81H745.84V403.62h14.93V373.75h37.56v29.87h24.6v31.19h-24.6V484q0,5.49,2.64,7.91c1.76,1.61,4.68,2.41,8.79,2.41Z" transform="translate(-132.14 -350.24)" />
</svg>
    