<svg id="Layer_1" data-name="Layer 1" xmlns="http://www.w3.org/2000/svg" width="1280" height="350" viewBox="0 0 574.11 150.64">
	<style>
		.cls-1{fill:#000000;}
	</style>
    
    <g opacity="0.05">
		<path d="M256.3,506.86a62.71,62.71,0,0,1-23.9-23.45,69,69,0,0,1,0-67.61,62.91,62.91,0,0,1,23.9-23.36,69.51,69.51,0,0,1,66.25,0,61.54,61.54,0,0,1,23.72,23.36,69.92,69.92,0,0,1-.09,67.61,62.25,62.25,0,0,1-23.72,23.45,69.41,69.41,0,0,1-66.16,0ZM314,476.57q9.21-10.23,9.22-27,0-17-9.22-27.1t-24.54-10.13q-15.53,0-24.73,10t-9.22,27.19q0,17,9.22,27.1t24.73,10.13Q304.76,486.79,314,476.57Z" transform="translate(-223.55 -367.8)" class="cls-1" />
		<path d="M417.17,415.89a35.33,35.33,0,0,1,18.25-4.84v33h-8.58q-11.67,0-17.52,5t-5.84,17.61V514h-31.2V412.15h31.2v17A41.15,41.15,0,0,1,417.17,415.89Z" transform="translate(-223.55 -367.8)" class="cls-1" />
		<path d="M512.61,514l-31-42.71V514H450.38v-135h31.21v74.64l30.84-41.42h38.5L508.6,463.24,551.3,514Z" transform="translate(-223.55 -367.8)" class="cls-1" />
		<path d="M562.89,435.32A44.23,44.23,0,0,1,579,417.07a42.23,42.23,0,0,1,22.81-6.38,39.21,39.21,0,0,1,18.89,4.38,32.31,32.31,0,0,1,12.5,11.49V412.15h31.2V514h-31.2V499.56a33.71,33.71,0,0,1-12.69,11.5,39.17,39.17,0,0,1-18.88,4.38A41.38,41.38,0,0,1,579,509a44.68,44.68,0,0,1-16.15-18.43q-5.94-12-5.93-27.65T562.89,435.32Zm63.87,9.31a21.93,21.93,0,0,0-31.57-.09q-6.48,6.66-6.48,18.34t6.48,18.52a21.71,21.71,0,0,0,31.57.09q6.48-6.75,6.48-18.43T626.76,444.63Z" transform="translate(-223.55 -367.8)" class="cls-1" />
		<path d="M689.35,396.73a15.68,15.68,0,0,1-5.2-12,15.86,15.86,0,0,1,5.2-12.13q5.21-4.84,13.41-4.84A18.66,18.66,0,0,1,716,372.64a15.89,15.89,0,0,1,5.2,12.13,15.71,15.71,0,0,1-5.2,12,18.69,18.69,0,0,1-13.24,4.83Q694.56,401.56,689.35,396.73Zm28.93,15.42V514H687.07V412.15Z" transform="translate(-223.55 -367.8)" class="cls-1" />
		<path d="M797.66,487.52V514H781.78q-17,0-26.46-8.31t-9.49-27.1V438.06H733.42V412.15h12.41V387.33H777v24.82h20.44v25.91H777v40.88q0,4.56,2.19,6.57t7.3,2Z" transform="translate(-223.55 -367.8)" class="cls-1" />
	</g>
</svg>
